<?xml version="1.0" encoding="utf-8"?>
<!-- Generator: Adobe Illustrator 22.0.1, SVG Export Plug-In . SVG Version: 6.00 Build 0)  -->
<svg version="1.1"
	 id="svg5165" inkscape:version="0.92.2 (unknown)" sodipodi:docname="vdlogo.svg" xmlns:cc="http://creativecommons.org/ns#" xmlns:dc="http://purl.org/dc/elements/1.1/" xmlns:inkscape="http://www.inkscape.org/namespaces/inkscape" xmlns:rdf="http://www.w3.org/1999/02/22-rdf-syntax-ns#" xmlns:sodipodi="http://sodipodi.sourceforge.net/DTD/sodipodi-0.dtd" xmlns:svg="http://www.w3.org/2000/svg"
	 xmlns="http://www.w3.org/2000/svg" xmlns:xlink="http://www.w3.org/1999/xlink" x="0px" y="0px" viewBox="0 0 595.3 841.9"
	 style="enable-background:new 0 0 595.3 841.9;" xml:space="preserve">
<sodipodi:namedview  bordercolor="#666666" borderopacity="1.0" id="base" inkscape:current-layer="layer1" inkscape:cx="191.19542" inkscape:cy="856.05829" inkscape:document-units="mm" inkscape:pageopacity="0.0" inkscape:pageshadow="2" inkscape:window-height="1200" inkscape:window-maximized="0" inkscape:window-width="1920" inkscape:window-x="1920" inkscape:window-y="0" inkscape:zoom="0.98994949" pagecolor="#ffffff" showgrid="false">
	</sodipodi:namedview>
<path d="M413.5,125.5l-11.3,16.8c-0.1,0.1-0.2,0.2-0.4,0.3l-0.1,0.3l-9.9,14.7h45.7l5.3-12.6c0.5,4.2,0.9,8.4,1.4,12.5h17.2
	c-2.1-15.2-4.2-30.4-6.3-45.6h-32.6C419.6,116.5,416.5,121,413.5,125.5z M442.5,142.1l-3.3,0l-0.7-0.1c-5.4,0-11.1,0.2-16,0.1
	c4.7-7.6,10.4-16.8,15-24.3l0,0c0.7-1,1.4-2.2,2.2-3.5C440.5,123.1,441.6,133.4,442.5,142.1z"/>
<path d="M452.8,94.5h-1h-16.4c-0.8,0-1.2,0.2-1.6,0.9c-3.1,4.6-6.1,9.1-9.2,13.7h30.3C454.2,104.3,453.5,99.4,452.8,94.5z"/>
<path d="M230.9,98c0.3-1.1,0.7-2.3,1-3.5c-0.4,0-0.6-0.1-0.8-0.1c-10.6,0-21.4,0-32,0c-1.7,0-3.4,0.2-5,0.6
	c-7,1.8-11.8,6.2-15.3,12.4c-0.3,0.5-0.6,1.1-0.8,1.6h49.9C228.8,105.4,229.9,101.8,230.9,98z"/>
<path d="M176.8,111.9c-0.8,2.6-1,5.2-0.5,8c1.5,8.3,9.7,15.5,18.2,15.2c3.2-0.1,6.5,0,9.8,0c1.7,0,2.8,0.8,3.1,2.2
	c0.4,1.6-0.2,3.1-1.7,3.8c-1,0.5-2.2,0.8-3.2,0.8c-9.6,0.1-19.2,0.1-28.9,0c-0.7,0-1,0.1-1.2,0.8c-1.4,4.7-2.7,9.2-4,13.9
	c-0.1,0.2-0.2,0.5-0.2,0.8c0.4,0,0.6,0,0.8,0c12,0,23.9,0,35.9-0.1c1.5,0,3.1-0.4,4.6-0.9c6.2-2.3,10.4-6.8,13.3-12.5
	c1.4-2.7,2.2-5.8,1.9-9.1l0,0c-0.5-4.6-2.7-8.3-5.9-11.5c-3.2-3.2-7-5-11.7-4.9c-3.2,0.1-6.5,0-9.8,0c-0.5,0-1,0-1.5-0.1
	c-1.5-0.4-2.2-1.6-2.4-3.6c-0.1-1.1,0.1-2.1,0.7-2.8H176.8z"/>
<path d="M222.4,154.3c-0.3,1-0.5,2.1-0.8,3.2c0.5,0,0.8,0,1.2,0c5.4,0,10.8,0,16.3,0c0.9,0,1.3-0.3,1.5-1.1c4-14.8,8-29.6,12.1-44.4
	h-18.9C229.9,126.1,226.1,140.2,222.4,154.3z"/>
<path d="M255.3,101.9c0.7-2.5,1.4-5,2-7.6c-0.6,0-0.9,0-1.2,0h0c-5.6,0-11.2,0-16.8,0c-0.8,0-1.1,0.2-1.3,1
	c-1.2,4.6-2.4,9.2-3.6,13.8h18.9C254,106.7,254.6,104.3,255.3,101.9z"/>
<path d="M316.5,125.4l-11.3,16.8c-0.1,0.1-0.2,0.2-0.4,0.3l-0.1,0.3l-9.9,14.7h45.7l5.3-12.6c0.5,4.2,0.9,8.4,1.4,12.5h17.2
	c-2.1-15.2-4.2-30.3-6.2-45.5h-32.7C322.5,116.4,319.5,120.9,316.5,125.4z M345.6,141.9c-6.8,0-14,0.1-20.1,0
	c4.7-7.6,10.4-16.8,15-24.3v0c0.7-1,1.3-2.2,2.2-3.5C343.6,123,344.6,133.2,345.6,141.9z"/>
<path d="M355.9,94.4h-1.1h-16.4c-0.8,0-1.2,0.2-1.7,0.9c-3.1,4.6-6.2,9.2-9.3,13.8h30.4C357.2,104.2,356.5,99.3,355.9,94.4z"/>
<path d="M364.9,111.9L364.9,111.9C364.7,112.7,364.7,112.8,364.9,111.9z"/>
<path d="M370.5,154.4c-0.3,1-0.5,2-0.8,3.1h1.2h16.3c0.9,0,1.3-0.3,1.5-1.1c3.7-13.4,8.2-30.6,12-44.4h-18.8
	C378.2,125.1,374,141.6,370.5,154.4z"/>
<path d="M420.1,94.4L420.1,94.4l-50.3,0c-1.3,4.9-2.7,9.8-4.1,14.7h50.1C417.3,103,418.3,100.7,420.1,94.4z"/>
<g>
	<path d="M178.2,94.5c-5.4,0-10.9,0-16.3,0l0,0h-19.1c-0.8,0-1.2,0.2-1.7,0.9c-3,4.6-6.1,9.2-9.2,13.7c-0.6,0.9-1.3,1.9-1.9,2.8
		c-5.9,8.9-11.9,17.8-17.8,26.7c-0.2,0.3-0.5,0.6-0.8,1c-0.1-0.5-0.1-1.1-0.2-1.6c-1-8.8-2-17.5-3-26.2c-0.1-0.9-0.2-1.9-0.3-2.8
		c-0.5-4.3-1-8.7-1.5-13c-0.1-0.5-0.1-1-0.2-1.5H90c0.5,4.8,1,9.7,1.5,14.5c0.1,0.9,0.2,1.9,0.3,2.8c1.5,15.2,3.1,30.4,4.6,45.7h0v0
		c0.5,0,0.8,0,1.1,0c3.4,0,6.8,0,10.2,0c0,0,0,0,0,0c3.4,0,6.7,0,10.1,0c0.9,0,1.3-0.3,1.9-1c10.1-14.9,20.2-29.8,30.3-44.6
		c0.6-0.9,1.3-1.9,1.9-2.8c2.9-4.3,5.8-8.5,8.7-12.8c0.2-0.3,0.4-0.5,0.5-0.8c0,0,0.1,0,0.1,0c0,0,0,0,0,0l0,0c0,0,0,0,0,0
		c-1.4,4.5-2.7,9-4.1,13.4h17.9c1.3-4.6,2.7-9.2,4-13.7c0.1-0.2,0.1-0.5,0.2-0.9C178.9,94.5,178.6,94.5,178.2,94.5z"/>
	<path d="M142.5,157.5c0.2,0,0.4,0,0.5,0.1c5.8,0,11.6,0,17.4,0c0.7,0,0.7-0.4,0.9-0.8c4.3-14.9,8.7-29.9,13.1-44.8h-17.9
		C151.7,127.1,147.1,142.2,142.5,157.5z"/>
</g>
<path d="M313.4,98.3c-1.7-2.6-4.5-4-8.3-4h-41.7l-4.4,14.8l-0.8,2.8l-13.4,45.6h24c5,0,9.4-0.5,13.4-1.7c4-1,7.6-2.8,10.9-5.1
	c3.3-2.3,6.3-5.2,9.1-8.9c2.8-3.6,5.5-8,8.1-13.2c2-3.4,3.5-6.8,4.4-10.4c0.6-2.2,1-4.3,1.2-6.3c0.1-1,0.2-1.9,0.2-2.8
	c0-0.3,0-0.6,0-0.9C316,104.3,315.1,100.9,313.4,98.3z M295.9,115.2c0.2,1,0,2.2-0.5,3.4s-0.8,2.4-1.3,3.7c-0.3,1.1-0.7,2-1.2,2.8
	s-0.9,1.5-1.2,2.2c-0.9,1.7-2.2,3.5-4,5.2c-1.7,1.7-3.7,3.2-5.7,4.6c-2,1.3-4,2.5-6.2,3.3c-2,0.8-3.8,1.3-5.3,1.3H268l8.7-29.6
	l0.4-1.5h15.5c1.2,0,2,0.5,2.5,1.3c0,0,0,0.1,0,0.1C295.6,112.8,295.9,113.9,295.9,115.2z"/>
</svg>
